
<svg width="0" height="0" class="hidden"><symbol viewBox="0 0 12 13" fill="none" xmlns="http://www.w3.org/2000/svg" id="angle-down"><path d="M9 5L6 8 3 5" stroke="currentColor" stroke-linecap="round" stroke-linejoin="round"></path></symbol><symbol viewBox="0 0 16 16" fill="none" xmlns="http://www.w3.org/2000/svg" id="angle-left"><path d="M9 4L5 8l4 4" stroke="currentColor" stroke-width="1.5" stroke-linecap="round" stroke-linejoin="round"></path></symbol><symbol viewBox="0 0 16 16" fill="none" xmlns="http://www.w3.org/2000/svg" id="angle-right"><path d="M7 12l4-4-4-4" stroke="currentColor" stroke-width="1.5" stroke-linecap="round" stroke-linejoin="round"></path></symbol><symbol viewBox="0 0 24 24" fill="none" xmlns="http://www.w3.org/2000/svg" id="application"><path d="M12 5v14m-7-7h14" stroke="currentColor" stroke-linecap="round" stroke-linejoin="round"></path></symbol><symbol viewBox="0 0 24 24" fill="none" xmlns="http://www.w3.org/2000/svg" id="arrow-left"><path d="M5 12h14M5 12l6-6m-6 6l6 6" stroke="currentColor" stroke-linecap="round" stroke-linejoin="round"></path></symbol><symbol viewBox="0 0 24 24" fill="none" xmlns="http://www.w3.org/2000/svg" id="arrow-right"><path d="M19 12l.354.354a.5.5 0 0 0 0-.708L19 12zm-14-.5a.5.5 0 0 0 0 1v-1zm7.646 6.146a.5.5 0 0 0 .708.708l-.708-.708zm.708-12a.5.5 0 0 0-.708.708l.708-.708zM19 11.5H5v1h14v-1zm-5.646 6.854l6-6-.708-.708-6 6 .708.708zm-.708-12l6 6 .708-.708-6-6-.708.708z" fill="currentColor"></path></symbol><symbol viewBox="0 0 32 32" fill="none" xmlns="http://www.w3.org/2000/svg" id="axe"><path d="M17.333 12l9.844 9.89a2.789 2.789 0 0 1 0 3.957 2.814 2.814 0 0 1-3.968 0L13.333 16" stroke="currentColor" stroke-width="1.5" stroke-linecap="round" stroke-linejoin="round"></path><path d="M8.88 20.88l-4.427-4.427a1.666 1.666 0 0 1 .56-2.725L9.333 12l8-8 4 4-8 8-1.728 4.32a1.667 1.667 0 0 1-2.725.56z" stroke="currentColor" stroke-width="1.5" stroke-linecap="round" stroke-linejoin="round"></path></symbol><symbol viewBox="0 0 24 24" fill="none" xmlns="http://www.w3.org/2000/svg" id="briefcase"><path d="M12 12v.01M8 7V5a2 2 0 0 1 2-2h4a2 2 0 0 1 2 2v2M3 12.999a20 20 0 0 0 18 0m-16-6h14a2 2 0 0 1 2 2v9a2 2 0 0 1-2 2H5a2 2 0 0 1-2-2v-9a2 2 0 0 1 2-2z" stroke="currentColor" stroke-linecap="round" stroke-linejoin="round"></path></symbol><symbol viewBox="0 0 24 24" fill="none" xmlns="http://www.w3.org/2000/svg" id="calculator"><path d="M8 14v.01m4-.01v.01m4-.01v.01M8 17v.01m4-.01v.01m4-.01v.01M6 3h12a2 2 0 0 1 2 2v14a2 2 0 0 1-2 2H6a2 2 0 0 1-2-2V5a2 2 0 0 1 2-2zm3 4h6a1 1 0 0 1 1 1v1a1 1 0 0 1-1 1H9a1 1 0 0 1-1-1V8a1 1 0 0 1 1-1z" stroke="currentColor" stroke-linecap="round" stroke-linejoin="round"></path></symbol><symbol viewBox="0 0 24 24" fill="none" xmlns="http://www.w3.org/2000/svg" id="calendar"><path d="M15.6 3.6v3.6M8.4 3.6v3.6m-4.8 3.6h15.6m-13.65-6h11.7a1.95 1.95 0 0 1 1.95 1.95v11.7a1.95 1.95 0 0 1-1.95 1.95H5.55a1.95 1.95 0 0 1-1.95-1.95V6.75A1.95 1.95 0 0 1 5.55 4.8zM8.4 15.6h2.4V18H8.4v-2.4z" stroke="currentColor" stroke-linecap="round" stroke-linejoin="round"></path></symbol><symbol viewBox="0 0 16 16" fill="none" xmlns="http://www.w3.org/2000/svg" id="check-mark"><path d="M3.333 8l3.334 3.333 6.666-6.666" stroke="currentColor" stroke-linecap="round" stroke-linejoin="round"></path></symbol><symbol viewBox="0 0 24 24" fill="none" xmlns="http://www.w3.org/2000/svg" id="contacts"><path d="M15 8h2m-2 4h2M7 16h10M6 4h12a3 3 0 0 1 3 3v10a3 3 0 0 1-3 3H6a3 3 0 0 1-3-3V7a3 3 0 0 1 3-3zm5 6a2 2 0 1 1-4 0 2 2 0 0 1 4 0z" stroke="currentColor" stroke-linecap="round" stroke-linejoin="round"></path></symbol><symbol viewBox="0 0 24 24" fill="none" xmlns="http://www.w3.org/2000/svg" id="copy"><path d="M15 3v4a1 1 0 0 0 1 1h4m-5-5h-4a2 2 0 0 0-2 2v10a2 2 0 0 0 2 2h7a2 2 0 0 0 2-2V8m-5-5l5 5m-4 9v2a2 2 0 0 1-2 2H7a2 2 0 0 1-2-2V9a2 2 0 0 1 2-2h2" stroke="currentColor" stroke-linecap="round" stroke-linejoin="round"></path></symbol><symbol viewBox="0 0 32 32" fill="none" xmlns="http://www.w3.org/2000/svg" id="crane"><path d="M8 28h8m-4 0V4l-8 8h24M12 4l13.333 8" stroke="currentColor" stroke-width="1.5" stroke-linecap="round" stroke-linejoin="round"></path><path d="M22.667 12v5.333A2.667 2.667 0 1 1 20 20" stroke="currentColor" stroke-width="1.5" stroke-linecap="round" stroke-linejoin="round"></path></symbol><symbol viewBox="0 0 24 24" fill="none" xmlns="http://www.w3.org/2000/svg" id="dollar"><path d="M16.7 8A3 3 0 0 0 14 6h-4a3 3 0 1 0 0 6h4a3 3 0 0 1 0 6h-4a3 3 0 0 1-2.7-2m4.7 2v3m0-18v3-3z" stroke="currentColor" stroke-linecap="round" stroke-linejoin="round"></path></symbol><symbol viewBox="0 0 32 32" fill="none" xmlns="http://www.w3.org/2000/svg" id="escalator"><path d="M5.334 25.333a2.667 2.667 0 1 0 0-5.333 2.667 2.667 0 0 0 0 5.333zm12 0a2.667 2.667 0 1 0 0-5.333 2.667 2.667 0 0 0 0 5.333zm-.001 0h-12m0-5.333h12m-6.666-4V9.333h2.667a4 4 0 0 1 4 4V20" stroke="currentColor" stroke-width="1.5" stroke-linecap="round" stroke-linejoin="round"></path><path d="M6.667 20v-2.667A1.333 1.333 0 0 1 8 16h9.334m10.826-2.827L24 6.667l-6.667 6.666" stroke="currentColor" stroke-width="1.5" stroke-linecap="round" stroke-linejoin="round"></path><path d="M28.16 13.173A4 4 0 0 1 25.333 20a4 4 0 0 1-2.827-1.173l5.654-5.654z" stroke="currentColor" stroke-width="1.5" stroke-linecap="round" stroke-linejoin="round"></path></symbol><symbol viewBox="0 0 24 24" fill="none" xmlns="http://www.w3.org/2000/svg" id="euro"><path d="M17.2 7c-.844-.965-1.913-1.617-3.074-1.876a5.212 5.212 0 0 0-3.45.423c-1.089.534-2.019 1.43-2.672 2.579A7.857 7.857 0 0 0 7 12c0 1.378.349 2.726 1.003 3.874.653 1.148 1.583 2.045 2.673 2.58a5.221 5.221 0 0 0 3.45.422c1.16-.259 2.23-.911 3.073-1.876M5 14h8m0-4H5h8z" stroke="currentColor" stroke-linecap="round" stroke-linejoin="round"></path></symbol><symbol viewBox="0 0 24 24" fill="none" xmlns="http://www.w3.org/2000/svg" id="exit"><path d="M14 8V6a2 2 0 0 0-2-2H5a2 2 0 0 0-2 2v12a2 2 0 0 0 2 2h7a2 2 0 0 0 2-2v-2m-7-4h14m0 0l-3-3m3 3l-3 3" stroke="currentColor" stroke-linecap="round" stroke-linejoin="round"></path></symbol><symbol viewBox="0 0 24 24" fill="none" xmlns="http://www.w3.org/2000/svg" id="eye-closed"><path d="M3 3l18 18M10.584 10.587a2 2 0 1 0 2.828 2.83" stroke="currentColor" stroke-linecap="round" stroke-linejoin="round"></path><path d="M9.363 5.365A9.466 9.466 0 0 1 12 5c4 0 7.333 2.333 10 7-.778 1.361-1.612 2.524-2.503 3.488m-2.14 1.861C15.726 18.45 13.942 19 12 19c-4 0-7.333-2.333-10-7 1.369-2.395 2.913-4.175 4.632-5.34" stroke="currentColor" stroke-linecap="round" stroke-linejoin="round"></path></symbol><symbol viewBox="0 0 24 24" fill="none" xmlns="http://www.w3.org/2000/svg" id="eye"><path d="M12 14a2 2 0 1 0 0-4 2 2 0 0 0 0 4z" stroke="currentColor" stroke-linecap="round" stroke-linejoin="round"></path><path d="M22 12c-2.667 4.667-6 7-10 7s-7.333-2.333-10-7c2.667-4.667 6-7 10-7s7.333 2.333 10 7z" stroke="currentColor" stroke-linecap="round" stroke-linejoin="round"></path></symbol><symbol viewBox="0 0 24 24" fill="none" xmlns="http://www.w3.org/2000/svg" id="fire"><path d="M12 12c2-2.96 0-7-1-8 0 3.038-1.773 4.741-3 6-1.226 1.26-2 3.24-2 5a6 6 0 1 0 12 0c0-1.532-1.056-3.94-2-5-1.786 3-2.791 3-4 2z" stroke="currentColor" stroke-linecap="round" stroke-linejoin="round"></path></symbol><symbol viewBox="0 0 24 24" fill="none" xmlns="http://www.w3.org/2000/svg" id="home"><path d="M16 15c-2.21 1.333-5.792 1.333-8 0m11-6.29l-5.333-4.148a2.666 2.666 0 0 0-3.274 0L5.059 8.71a2.665 2.665 0 0 0-1.029 2.105v7.2a2 2 0 0 0 2 2h12a2 2 0 0 0 2-2v-7.2c0-.823-.38-1.6-1.03-2.105z" stroke="currentColor" stroke-linecap="round" stroke-linejoin="round"></path></symbol><symbol viewBox="0 0 20 20" fill="none" xmlns="http://www.w3.org/2000/svg" id="maps"><path d="M9.167 15L7.5 14.167m0 0l-5 2.5V5.833l5-2.5m0 10.834V3.333m0 0l5 2.5m0 0l5-2.5v8.334m-5-5.834V10m2.917 6.25l2.083 2.083m-1.666-3.75a2.083 2.083 0 1 1-4.167 0 2.083 2.083 0 0 1 4.167 0z" stroke="currentColor" stroke-linecap="round" stroke-linejoin="round"></path></symbol><symbol viewBox="0 0 32 32" fill="none" xmlns="http://www.w3.org/2000/svg" id="medicine"><path d="M6.667 28h18.667M8 24h2.667m-1.334 0v4M12 14.667l4 4 8-8-4-4-8 8zm2 2l-2 2M22.667 4l4 4M16 28a8 8 0 0 0 4.953-14.283" stroke="currentColor" stroke-width="1.5" stroke-linecap="round" stroke-linejoin="round"></path></symbol><symbol viewBox="0 0 36 36" fill="none" xmlns="http://www.w3.org/2000/svg" id="message"><path d="M12 13.5h12m-12 6h9M18 30l-4.5-4.5h-3A4.5 4.5 0 0 1 6 21v-9a4.5 4.5 0 0 1 4.5-4.5h15A4.5 4.5 0 0 1 30 12v9a4.5 4.5 0 0 1-4.5 4.5h-3L18 30z" stroke="currentColor" stroke-width="1.5" stroke-linecap="round" stroke-linejoin="round"></path></symbol><symbol viewBox="0 0 24 24" fill="none" xmlns="http://www.w3.org/2000/svg" id="money"><path d="M17 9V7a2 2 0 0 0-2-2H5a2 2 0 0 0-2 2v6a2 2 0 0 0 2 2h2m2-6h10a2 2 0 0 1 2 2v6a2 2 0 0 1-2 2H9a2 2 0 0 1-2-2v-6a2 2 0 0 1 2-2zm7 5a2 2 0 1 1-4 0 2 2 0 0 1 4 0z" stroke="currentColor" stroke-linecap="round" stroke-linejoin="round"></path></symbol><symbol viewBox="0 0 24 24" fill="none" xmlns="http://www.w3.org/2000/svg" id="monitoring"><path d="M7 20h10m-8-4v4m6-4v4M7 10h2l2 3 2-6 1 3h3M4 4h16a1 1 0 0 1 1 1v10a1 1 0 0 1-1 1H4a1 1 0 0 1-1-1V5a1 1 0 0 1 1-1z" stroke="currentColor" stroke-linecap="round" stroke-linejoin="round"></path></symbol><symbol viewBox="0 0 16 16" fill="none" xmlns="http://www.w3.org/2000/svg" id="navigator"><path d="M14 2L9.667 14A.367.367 0 0 1 9 14L6.667 9.333 2 7a.367.367 0 0 1 0-.667L14 2z" stroke="currentColor" stroke-linecap="round" stroke-linejoin="round"></path></symbol><symbol viewBox="0 0 24 24" fill="none" xmlns="http://www.w3.org/2000/svg" id="news"><path d="M16 6h3a1 1 0 0 1 1 1v11a2 2 0 0 1-2 2m0 0a2 2 0 0 1-2-2V5a1 1 0 0 0-1-1H5a1 1 0 0 0-1 1v12a3 3 0 0 0 3 3h11zM8 8h4m-4 4h4m-4 4h4" stroke="currentColor" stroke-linecap="round" stroke-linejoin="round"></path></symbol><symbol viewBox="0 0 16 16" fill="none" xmlns="http://www.w3.org/2000/svg" id="phone"><path d="M3.333 2.667H6L7.333 6 5.667 7A7.333 7.333 0 0 0 9 10.333l1-1.666L13.333 10v2.667A1.333 1.333 0 0 1 12 14 10.667 10.667 0 0 1 2 4a1.333 1.333 0 0 1 1.333-1.333" stroke="currentColor" stroke-linecap="round" stroke-linejoin="round"></path></symbol><symbol viewBox="0 0 32 32" fill="none" xmlns="http://www.w3.org/2000/svg" id="pills"><path d="M18.667 4h-5.334C12.597 4 12 4.597 12 5.333v1.334C12 7.403 12.597 8 13.333 8h5.334C19.403 8 20 7.403 20 6.667V5.333C20 4.597 19.403 4 18.667 4zm-5.334 4v1.307a2.392 2.392 0 0 1-2 2.36c-1.155.192-2 1.19-2 2.36v11.306A2.667 2.667 0 0 0 12 28h8a2.667 2.667 0 0 0 2.666-2.667V14.027c0-1.17-.845-2.168-2-2.36a2.394 2.394 0 0 1-2-2.36V8m-9.333 8h13.333M9.333 24h13.333m-7.999-4h2.667" stroke="currentColor" stroke-width="1.5" stroke-linecap="round" stroke-linejoin="round"></path></symbol><symbol viewBox="0 0 32 32" fill="none" xmlns="http://www.w3.org/2000/svg" id="plane"><g clip-path="url(#clip0_1270_2764)"><path d="M21.334 13.334h5.334a2.667 2.667 0 0 1 0 5.333h-5.334L16.001 28h-4l2.667-9.333H9.334l-2.666 2.667h-4L5.334 16l-2.666-5.333h4l2.666 2.667h5.334L12 4h4l5.333 9.334z" stroke="currentColor" stroke-width="1.641" stroke-linecap="round" stroke-linejoin="round"></path></g><defs><clipPath id="clip0_1270_2764"><path fill="currentColor" d="M0 0h32v32H0z"></path></clipPath></defs></symbol><symbol viewBox="0 0 24 24" fill="none" xmlns="http://www.w3.org/2000/svg" id="profile"><path d="M6 21v-2a4 4 0 0 1 4-4h4a4 4 0 0 1 4 4v2M16 7a4 4 0 1 1-8 0 4 4 0 0 1 8 0z" stroke="currentColor" stroke-linecap="round" stroke-linejoin="round"></path></symbol><symbol viewBox="0 0 32 32" fill="none" xmlns="http://www.w3.org/2000/svg" id="real-estate"><g clip-path="url(#clip0_1270_2757)" stroke="currentColor" stroke-width="1.641" stroke-linecap="round" stroke-linejoin="round"><path d="M17.333 28v-9.333L10.667 12 4 18.667V28h6.667m6.666 0h-6.666m6.666 0H28V5.334A1.334 1.334 0 0 0 26.667 4H13.333A1.333 1.333 0 0 0 12 5.334v8M10.667 28v-5.333m6.666-13.333v.013m5.335-.013v.013m0 5.32v.014m0 5.319v.014"></path></g><defs><clipPath id="clip0_1270_2757"><path fill="currentColor" d="M0 0h32v32H0z"></path></clipPath></defs></symbol><symbol viewBox="0 0 18 18" fill="none" xmlns="http://www.w3.org/2000/svg" id="reference"><path d="M7 6.667c0-.398.184-.78.513-1.061a1.91 1.91 0 0 1 1.237-.44h.5c.464 0 .91.159 1.237.44A1.4 1.4 0 0 1 11 6.666a1.5 1.5 0 0 1-1 1.5c-.307.144-.57.417-.75.778-.18.36-.268.79-.25 1.222m0 2v.005M1 9a8 8 0 1 1 16 0A8 8 0 0 1 1 9z" stroke="currentColor" stroke-linecap="round" stroke-linejoin="round"></path></symbol><symbol viewBox="0 0 24 24" fill="none" xmlns="http://www.w3.org/2000/svg" id="ruble"><path d="M8 19V5h6a3 3 0 0 1 0 6H6m8 4H6" stroke="currentColor" stroke-linecap="round" stroke-linejoin="round"></path></symbol><symbol viewBox="0 0 30 30" fill="none" xmlns="http://www.w3.org/2000/svg" id="telegram"><path fill-rule="evenodd" clip-rule="evenodd" d="M19.663 21.885c1.08.425 1.483-.465 1.483-.465L24 8.502c-.023-.869-1.325-.344-1.325-.344L6.7 13.806s-.763.243-.696.67c.068.423.673.625.673.625l4.021 1.216s1.214 3.584 1.462 4.273c.224.667.427.688.427.688.223.082.426-.06.426-.06l2.607-2.127 4.043 2.794zm.698-11.095s.561-.304.538 0c0 0 .09.04-.203.324-.268.243-6.626 5.386-7.48 6.074a.223.223 0 0 0-.083.078.195.195 0 0 0-.03.105l-.246 1.903c-.047.202-.338.223-.405.04l-1.055-3.118a.27.27 0 0 1 0-.193.304.304 0 0 1 .133-.151l8.83-5.062z" fill="currentColor"></path></symbol><symbol viewBox="0 0 30 30" fill="none" xmlns="http://www.w3.org/2000/svg" id="tenchat"><path d="M14.184 7.013c2.156-.07 4.322.136 6.417.617.315.074.634.14.932.263a3.495 3.495 0 0 1 1.833 1.642c.223.412.306.871.384 1.322a16.42 16.42 0 0 1-.034 5.898c-.057.306-.117.615-.244.904-.325.79-.985 1.452-1.802 1.814-.295.137-.615.213-.933.29a.426.426 0 0 0-.33.416v2.65c.014.101-.095.178-.195.17-.113.01-.188-.078-.267-.136-.924-.732-1.851-1.462-2.776-2.193-.244-.2-.572-.3-.893-.28a25.134 25.134 0 0 1-6.936-.611c-.265-.063-.533-.117-.787-.216-.921-.337-1.678-1.048-2.029-1.914-.133-.313-.196-.645-.254-.976a16.424 16.424 0 0 1 .028-6.079c.074-.437.204-.872.445-1.256.459-.771 1.259-1.358 2.17-1.591a24.893 24.893 0 0 1 5.27-.734zm-2.832 2.964c-.231.028-.421.229-.414.448v1.619c-.002.238.234.445.487.442.58.002 1.16-.001 1.741.001.25.008.471.22.461.456v4.325c-.014.252.228.484.498.473.64.002 1.28 0 1.921 0 .277.02.535-.215.517-.476v-4.32c-.013-.246.226-.464.487-.458.566-.002 1.132.001 1.698-.001.256.012.5-.19.502-.433.004-.5 0-1.001.003-1.501-.001-.086.003-.173-.02-.256-.058-.194-.271-.333-.485-.324-2.465.005-4.93-.004-7.396.005z" fill="currentColor"></path></symbol><symbol xmlns="http://www.w3.org/2000/svg" viewBox="0 0 512 512" id="tick"><path d="M504.502 75.496c-9.997-9.998-26.205-9.998-36.204 0L161.594 382.203 43.702 264.311c-9.997-9.998-26.205-9.997-36.204 0-9.998 9.997-9.998 26.205 0 36.203l135.994 135.992c9.994 9.997 26.214 9.99 36.204 0L504.502 111.7c9.998-9.997 9.997-26.206 0-36.204z" fill="currentColor"></path></symbol><symbol viewBox="0 0 30 30" fill="none" xmlns="http://www.w3.org/2000/svg" id="tiktok"><path d="M21.995 13.473a4.394 4.394 0 0 1-4.055-1.911v6.577c0 2.685-2.225 4.861-4.97 4.861C10.225 23 8 20.824 8 18.139c0-2.685 2.225-4.861 4.97-4.861.104 0 .205.01.308.015v2.396c-.1-.013-.202-.03-.308-.03-1.4 0-2.536 1.11-2.536 2.48 0 1.37 1.136 2.48 2.536 2.48 1.4 0 2.64-1.08 2.64-2.45L15.633 7h2.344c.22 2.055 1.916 3.66 4.022 3.81l-.005 2.663z" fill="currentColor"></path></symbol><symbol viewBox="0 0 32 32" fill="none" xmlns="http://www.w3.org/2000/svg" id="tractor"><path d="M9.333 25.333a5.333 5.333 0 1 0 0-10.666 5.333 5.333 0 0 0 0 10.666zm0-5.333v.013m16.001 5.32a2.667 2.667 0 1 0 0-5.333 2.667 2.667 0 0 0 0 5.333zM14 22.667h8.667" stroke="currentColor" stroke-width="1.5" stroke-linecap="round" stroke-linejoin="round"></path><path d="M26.667 20.267v-5.6a1.334 1.334 0 0 0-1.333-1.334h-8l-2.667-6.666h-8v8.666" stroke="currentColor" stroke-width="1.5" stroke-linecap="round" stroke-linejoin="round"></path><path d="M24 6.667h-1.334A1.333 1.333 0 0 0 21.333 8v5.333" stroke="currentColor" stroke-width="1.5" stroke-linecap="round" stroke-linejoin="round"></path></symbol><symbol viewBox="0 0 32 32" fill="none" xmlns="http://www.w3.org/2000/svg" id="train"><path d="M28 17.333C28 12.173 23.507 8 14.667 8H4m0 12h21.333A2.667 2.667 0 0 0 28 17.333M4 8v6.666m0 0h23.333M4 14.666V20m6.667-5.334V8m6.667 6.666v-6M4 25.333h24" stroke="currentColor" stroke-width="1.641" stroke-linecap="square"></path></symbol><symbol viewBox="0 0 24 24" fill="none" xmlns="http://www.w3.org/2000/svg" id="treaties"><path d="M14 3v4a1 1 0 0 0 1 1h4m-5-5H7a2 2 0 0 0-2 2v14a2 2 0 0 0 2 2h10a2 2 0 0 0 2-2V8m-5-5l5 5" stroke="currentColor" stroke-linecap="round" stroke-linejoin="round"></path></symbol><symbol viewBox="0 0 32 32" fill="none" xmlns="http://www.w3.org/2000/svg" id="truck"><path d="M6.667 25.333a2.667 2.667 0 1 0 0-5.333 2.667 2.667 0 0 0 0 5.333zm16 0a2.667 2.667 0 1 0 0-5.333 2.667 2.667 0 0 0 0 5.333z" stroke="currentColor" stroke-width="1.5" stroke-linecap="round" stroke-linejoin="round"></path><path d="M25.333 24H28v-8c0-2.475-.703-4.85-1.953-6.6s-2.946-2.733-4.714-2.733H20L22 16h6M9.333 24H20 9.333zM16 24V6.667h4m-16 16V16h12" stroke="currentColor" stroke-width="1.5" stroke-linecap="round" stroke-linejoin="round"></path></symbol><symbol viewBox="0 0 30 30" fill="none" xmlns="http://www.w3.org/2000/svg" id="vk"><path fill-rule="evenodd" clip-rule="evenodd" d="M24.541 9.813c.14-.469 0-.813-.662-.813h-2.188c-.556 0-.812.297-.951.625 0 0-1.113 2.74-2.69 4.52-.51.515-.741.679-1.02.679-.139 0-.34-.164-.34-.632v-4.38c0-.562-.161-.812-.625-.812h-3.438c-.348 0-.557.26-.557.508 0 .533.788.656.87 2.155v3.255c0 .714-.128.843-.406.843-.742 0-2.546-2.752-3.617-5.902-.21-.612-.42-.859-.979-.859H5.75c-.625 0-.75.297-.75.625 0 .586.742 3.49 3.454 7.33C10.262 19.578 12.809 21 15.127 21c1.391 0 1.563-.316 1.563-.86v-1.982c0-.632.132-.758.572-.758.325 0 .881.164 2.18 1.429C20.925 20.327 21.169 21 22.004 21h2.188c.625 0 .938-.316.757-.939-.197-.621-.905-1.522-1.845-2.59-.51-.61-1.275-1.265-1.507-1.593-.324-.421-.232-.609 0-.983 0 0 2.666-3.794 2.944-5.082z" fill="currentColor"></path></symbol><symbol viewBox="0 0 32 32" fill="none" xmlns="http://www.w3.org/2000/svg" id="yacht"><path d="M4 22.667h17.867A3.999 3.999 0 0 0 25.2 20.88l4.133-6.213h-8.306a5.336 5.336 0 0 0-1.987.386l-4.747 1.894a5.331 5.331 0 0 1-1.986.386H6l-2 5.334zm4-5.334l2-6.666" stroke="currentColor" stroke-width="1.5" stroke-linecap="round" stroke-linejoin="round"></path><path d="M8 10.667h10.667l2.666 4" stroke="currentColor" stroke-width="1.5" stroke-linecap="round" stroke-linejoin="round"></path></symbol><symbol viewBox="0 0 30 30" fill="none" xmlns="http://www.w3.org/2000/svg" id="youtube"><path fill-rule="evenodd" clip-rule="evenodd" d="M22.043 9.367c.77.198 1.379.776 1.586 1.51.386 1.342.37 4.137.37 4.137s0 2.781-.37 4.123c-.207.734-.815 1.312-1.586 1.51C20.634 21 15 21 15 21s-5.62 0-7.043-.367c-.77-.198-1.379-.776-1.586-1.51C6 17.794 6 15 6 15s0-2.781.37-4.122c.208-.735.831-1.327 1.587-1.525C9.366 9 15 9 15 9s5.634 0 7.043.367zM17.89 15l-4.685 2.57v-5.14L17.89 15z" fill="currentColor"></path></symbol></svg>

<svg><use xlink:href="#angle-down"></use></svg><svg><use xlink:href="#angle-left"></use></svg><svg><use xlink:href="#angle-right"></use></svg><svg><use xlink:href="#application"></use></svg><svg><use xlink:href="#arrow-left"></use></svg><svg><use xlink:href="#arrow-right"></use></svg><svg><use xlink:href="#axe"></use></svg><svg><use xlink:href="#briefcase"></use></svg><svg><use xlink:href="#calculator"></use></svg><svg><use xlink:href="#calendar"></use></svg><svg><use xlink:href="#check-mark"></use></svg><svg><use xlink:href="#contacts"></use></svg><svg><use xlink:href="#copy"></use></svg><svg><use xlink:href="#crane"></use></svg><svg><use xlink:href="#dollar"></use></svg><svg><use xlink:href="#escalator"></use></svg><svg><use xlink:href="#euro"></use></svg><svg><use xlink:href="#exit"></use></svg><svg><use xlink:href="#eye-closed"></use></svg><svg><use xlink:href="#eye"></use></svg><svg><use xlink:href="#fire"></use></svg><svg><use xlink:href="#home"></use></svg><svg><use xlink:href="#maps"></use></svg><svg><use xlink:href="#medicine"></use></svg><svg><use xlink:href="#message"></use></svg><svg><use xlink:href="#money"></use></svg><svg><use xlink:href="#monitoring"></use></svg><svg><use xlink:href="#navigator"></use></svg><svg><use xlink:href="#news"></use></svg><svg><use xlink:href="#phone"></use></svg><svg><use xlink:href="#pills"></use></svg><svg><use xlink:href="#plane"></use></svg><svg><use xlink:href="#profile"></use></svg><svg><use xlink:href="#real-estate"></use></svg><svg><use xlink:href="#reference"></use></svg><svg><use xlink:href="#ruble"></use></svg><svg><use xlink:href="#telegram"></use></svg><svg><use xlink:href="#tenchat"></use></svg><svg><use xlink:href="#tick"></use></svg><svg><use xlink:href="#tiktok"></use></svg><svg><use xlink:href="#tractor"></use></svg><svg><use xlink:href="#train"></use></svg><svg><use xlink:href="#treaties"></use></svg><svg><use xlink:href="#truck"></use></svg><svg><use xlink:href="#vk"></use></svg><svg><use xlink:href="#yacht"></use></svg><svg><use xlink:href="#youtube"></use></svg>
