<svg  viewBox="0 0 24 24" fill="none" xmlns="http://www.w3.org/2000/svg">
<path d="M19 12L19.3536 12.3536C19.4473 12.2598 19.5 12.1326 19.5 12C19.5 11.8674 19.4473 11.7402 19.3536 11.6464L19 12ZM5 11.5C4.72386 11.5 4.5 11.7239 4.5 12C4.5 12.2761 4.72386 12.5 5 12.5L5 11.5ZM12.6464 17.6464C12.4512 17.8417 12.4512 18.1583 12.6464 18.3536C12.8417 18.5488 13.1583 18.5488 13.3536 18.3536L12.6464 17.6464ZM13.3536 5.64645C13.1583 5.45118 12.8417 5.45118 12.6464 5.64645C12.4512 5.84171 12.4512 6.15829 12.6464 6.35355L13.3536 5.64645ZM19 11.5L5 11.5L5 12.5L19 12.5L19 11.5ZM13.3536 18.3536L19.3536 12.3536L18.6464 11.6464L12.6464 17.6464L13.3536 18.3536ZM12.6464 6.35355L18.6464 12.3536L19.3536 11.6464L13.3536 5.64645L12.6464 6.35355Z" fill="currentColor"/>
</svg>
