<svg width="32" height="32" viewBox="0 0 32 32" fill="none" xmlns="http://www.w3.org/2000/svg">
<path d="M17.333 12L27.177 21.8907C28.2743 22.984 28.2743 24.7547 27.177 25.8467C26.6498 26.371 25.9365 26.6654 25.193 26.6654C24.4495 26.6654 23.7362 26.371 23.209 25.8467L13.333 16" stroke="currentColor" stroke-width="1.5" stroke-linecap="round" stroke-linejoin="round"/>
<path d="M8.88005 20.88L4.45338 16.4533C4.25852 16.2583 4.11509 16.0179 4.03595 15.7538C3.95681 15.4897 3.94443 15.21 3.99993 14.94C4.05542 14.6699 4.17706 14.4178 4.35393 14.2063C4.5308 13.9948 4.75739 13.8304 5.01338 13.728L9.33338 12L17.3334 4L21.3334 8L13.3334 16L11.6054 20.32C11.503 20.576 11.3386 20.8026 11.1271 20.9795C10.9156 21.1563 10.6635 21.278 10.3934 21.3335C10.1233 21.389 9.84372 21.3766 9.5796 21.2974C9.31548 21.2183 9.07511 21.0749 8.88005 20.88Z" stroke="currentColor" stroke-width="1.5" stroke-linecap="round" stroke-linejoin="round"/>
</svg>
