<svg  viewBox="0 0 24 24" fill="none" xmlns="http://www.w3.org/2000/svg">
<path d="M12 12V12.01M7.99951 7V5C7.99951 4.46957 8.21023 3.96086 8.5853 3.58579C8.96037 3.21071 9.46908 3 9.99951 3H13.9995C14.5299 3 15.0387 3.21071 15.4137 3.58579C15.7888 3.96086 15.9995 4.46957 15.9995 5V7M3 12.999C5.79158 14.4057 8.87403 15.1385 12 15.1385C15.126 15.1385 18.2084 14.4057 21 12.999M5 6.99902H19C20.1046 6.99902 21 7.89445 21 8.99902V17.999C21 19.1036 20.1046 19.999 19 19.999H5C3.89543 19.999 3 19.1036 3 17.999V8.99902C3 7.89445 3.89543 6.99902 5 6.99902Z" stroke="currentColor" stroke-linecap="round" stroke-linejoin="round"/>
</svg>
