<svg  viewBox="0 0 24 24" fill="none" xmlns="http://www.w3.org/2000/svg">
<path d="M15 3V7C15 7.26522 15.1054 7.51957 15.2929 7.70711C15.4805 7.89464 15.7348 8 16 8H20M15 3H11C10.4696 3 9.96089 3.21071 9.58582 3.58579C9.21074 3.96086 9.00003 4.46957 9.00003 5V15C9.00003 15.5304 9.21074 16.0391 9.58582 16.4142C9.96089 16.7893 10.4696 17 11 17H18C18.5305 17 19.0392 16.7893 19.4142 16.4142C19.7893 16.0391 20 15.5304 20 15V8M15 3L20 8M16 16.9998V18.9998C16 19.5302 15.7893 20.0389 15.4142 20.414C15.0391 20.789 14.5304 20.9998 14 20.9998H7C6.46957 20.9998 5.96086 20.789 5.58579 20.414C5.21071 20.0389 5 19.5302 5 18.9998V8.99976C5 8.46932 5.21071 7.96062 5.58579 7.58554C5.96086 7.21047 6.46957 6.99976 7 6.99976H9" stroke="currentColor" stroke-linecap="round" stroke-linejoin="round"/>
</svg>
