<svg width="32" height="32" viewBox="0 0 32 32" fill="none" xmlns="http://www.w3.org/2000/svg">
<path d="M8 28H16" stroke="currentColor" stroke-width="1.5" stroke-linecap="round" stroke-linejoin="round"/>
<path d="M12 28V4L4 12H28" stroke="currentColor" stroke-width="1.5" stroke-linecap="round" stroke-linejoin="round"/>
<path d="M12 4L25.3333 12" stroke="currentColor" stroke-width="1.5" stroke-linecap="round" stroke-linejoin="round"/>
<path d="M22.6667 12V17.3333C23.1941 17.3333 23.7097 17.4897 24.1482 17.7827C24.5867 18.0758 24.9285 18.4922 25.1303 18.9795C25.3322 19.4668 25.385 20.003 25.2821 20.5202C25.1792 21.0375 24.9252 21.5127 24.5523 21.8856C24.1793 22.2586 23.7042 22.5125 23.1869 22.6154C22.6696 22.7183 22.1334 22.6655 21.6462 22.4637C21.1589 22.2618 20.7424 21.9201 20.4494 21.4815C20.1564 21.043 20 20.5274 20 20" stroke="currentColor" stroke-width="1.5" stroke-linecap="round" stroke-linejoin="round"/>
</svg>
