<svg  viewBox="0 0 24 24" fill="none" xmlns="http://www.w3.org/2000/svg">
<path d="M16 14.9998C13.79 16.3328 10.208 16.3328 8.00003 14.9998M19 8.70977L13.667 4.56177C13.199 4.19768 12.623 4 12.03 4C11.4371 4 10.861 4.19768 10.393 4.56177L5.05903 8.70977C4.73847 8.95905 4.47912 9.2783 4.30078 9.64312C4.12245 10.0079 4.02984 10.4087 4.03003 10.8148V18.0148C4.03003 18.5452 4.24074 19.0539 4.61582 19.429C4.99089 19.8041 5.4996 20.0148 6.03003 20.0148H18.03C18.5605 20.0148 19.0692 19.8041 19.4442 19.429C19.8193 19.0539 20.03 18.5452 20.03 18.0148V10.8148C20.03 9.99177 19.65 9.21477 19 8.70977Z" stroke="currentColor" stroke-linecap="round" stroke-linejoin="round"/>
</svg>
