<svg viewBox="0 0 36 36" fill="none" xmlns="http://www.w3.org/2000/svg">
    <path d="M12 13.5H24M12 19.5H21M18 30L13.5 25.5H10.5C9.30653 25.5 8.16193 25.0259 7.31802 24.182C6.47411 23.3381 6 22.1935 6 21V12C6 10.8065 6.47411 9.66192 7.31802 8.818C8.16193 7.97409 9.30653 7.49998 10.5 7.49998H25.5C26.6935 7.49998 27.8381 7.97409 28.682 8.818C29.5259 9.66192 30 10.8065 30 12V21C30 22.1935 29.5259 23.3381 28.682 24.182C27.8381 25.0259 26.6935 25.5 25.5 25.5H22.5L18 30Z"
          stroke="currentColor" stroke-width="1.5" stroke-linecap="round" stroke-linejoin="round"/>
</svg>
