<svg viewBox="0 0 24 24" fill="none" xmlns="http://www.w3.org/2000/svg">
<path d="M17 9.00024V7.00024C17 6.46981 16.7893 5.9611 16.4142 5.58603C16.0391 5.21096 15.5304 5.00024 15 5.00024H5C4.46957 5.00024 3.96086 5.21096 3.58579 5.58603C3.21071 5.9611 3 6.46981 3 7.00024V13.0002C3 13.5307 3.21071 14.0394 3.58579 14.4145C3.96086 14.7895 4.46957 15.0002 5 15.0002H7M9.00007 9H19.0001C20.1046 9 21.0001 9.89543 21.0001 11V17C21.0001 18.1046 20.1046 19 19.0001 19H9.00007C7.8955 19 7.00007 18.1046 7.00007 17V11C7.00007 9.89543 7.8955 9 9.00007 9ZM16 14C16 15.1046 15.1046 16 14 16C12.8954 16 12 15.1046 12 14C12 12.8954 12.8954 12 14 12C15.1046 12 16 12.8954 16 14Z" stroke="currentColor" stroke-linecap="round" stroke-linejoin="round"/>
</svg>
