<svg viewBox="0 0 18 18" fill="none" xmlns="http://www.w3.org/2000/svg">
<path d="M7 6.6665C7 6.26868 7.18437 5.88715 7.51256 5.60584C7.84075 5.32454 8.28587 5.1665 8.75 5.1665H9.25C9.71413 5.1665 10.1592 5.32454 10.4874 5.60584C10.8156 5.88715 11 6.26868 11 6.6665C11.0184 6.99113 10.9308 7.31295 10.7505 7.58349C10.5701 7.85403 10.3067 8.05864 10 8.1665C9.69326 8.31032 9.42988 8.58313 9.24952 8.94385C9.06916 9.30457 8.98159 9.73367 9 10.1665M9 12.1665V12.1715M1 9C1 4.58172 4.58172 1 9 1C13.4183 1 17 4.58172 17 9C17 13.4183 13.4183 17 9 17C4.58172 17 1 13.4183 1 9Z" stroke="currentColor" stroke-linecap="round" stroke-linejoin="round"/>
</svg>
