<svg width="30" height="30" viewBox="0 0 30 30" fill="none" xmlns="http://www.w3.org/2000/svg">
<path fill-rule="evenodd" clip-rule="evenodd" d="M19.6626 21.8846C20.7427 22.3104 21.1457 21.4205 21.1457 21.4205L24 8.50126C23.9769 7.63221 22.6751 8.15711 22.6751 8.15711L6.70049 13.8059C6.70049 13.8059 5.93672 14.0493 6.00422 14.4751C6.07173 14.8992 6.6773 15.1008 6.6773 15.1008L10.6985 16.3175C10.6985 16.3175 11.9116 19.9014 12.1604 20.5897C12.3841 21.2572 12.5866 21.278 12.5866 21.278C12.8103 21.3597 13.0128 21.2172 13.0128 21.2172L15.6203 19.0915L19.6626 21.8846V21.8846ZM20.3608 10.7903C20.3608 10.7903 20.922 10.4862 20.8989 10.7903C20.8989 10.7903 20.9895 10.8303 20.6964 11.1136C20.4283 11.357 14.0697 16.5 13.2153 17.1883C13.1808 17.2074 13.1524 17.2343 13.1328 17.2663C13.1132 17.2983 13.1031 17.3342 13.1035 17.3708L12.8566 19.274C12.8103 19.4756 12.5191 19.4965 12.4516 19.314L11.3966 16.1958C11.3733 16.1333 11.3737 16.0655 11.3978 16.0032C11.4219 15.9409 11.4682 15.8876 11.5297 15.8517L20.3608 10.7903V10.7903Z" fill="currentColor"/>
</svg>
