<svg width="30" height="30" viewBox="0 0 30 30" fill="none" xmlns="http://www.w3.org/2000/svg">
<path d="M14.1836 7.0134C16.3396 6.94325 18.5056 7.14856 20.6007 7.63019C20.9156 7.70377 21.2351 7.76921 21.5331 7.89283C22.3318 8.20678 22.996 8.80391 23.3663 9.53534C23.5888 9.94725 23.6716 10.4062 23.7499 10.857C24.0946 12.8062 24.0827 14.8093 23.716 16.7547C23.6593 17.061 23.5993 17.3698 23.4716 17.6585C23.1471 18.4481 22.4875 19.1107 21.6699 19.473C21.3752 19.6103 21.0547 19.6856 20.7375 19.7621C20.5393 19.8075 20.402 19.9905 20.4075 20.1787C20.4066 21.062 20.4084 21.9457 20.407 22.8294C20.4208 22.9304 20.3123 23.0069 20.2116 22.9992C20.099 23.0091 20.0239 22.921 19.9452 22.8628C19.021 22.1305 18.0936 21.4012 17.1685 20.6702C16.9255 20.4709 16.5973 20.3704 16.2755 20.3905C13.9483 20.5068 11.602 20.3053 9.33982 19.7788C9.07524 19.7159 8.80655 19.6616 8.55342 19.5632C7.63153 19.2262 6.87489 18.5148 6.52426 17.6491C6.39106 17.3364 6.32835 17.0041 6.27021 16.6734C5.89899 14.6661 5.91226 12.5988 6.29768 10.594C6.37183 10.1568 6.50229 9.72226 6.7426 9.33815C7.20171 8.56651 8.00184 7.98008 8.9132 7.74654C10.632 7.31538 12.4048 7.069 14.1836 7.0134ZM11.3525 9.97719C11.1209 10.0046 10.9305 10.2056 10.9382 10.425C10.9378 10.9644 10.9373 11.5042 10.9382 12.0436C10.9364 12.2818 11.1721 12.4893 11.4248 12.4859C12.0052 12.488 12.5856 12.4846 13.1661 12.4872C13.4151 12.4949 13.6375 12.707 13.627 12.9427C13.6275 14.3846 13.6265 15.8265 13.6275 17.2684C13.6128 17.5199 13.855 17.7518 14.125 17.7415C14.7654 17.7432 15.4058 17.7415 16.0462 17.7419C16.3235 17.7612 16.5813 17.5255 16.5625 17.2654C16.5625 15.8252 16.5625 14.3855 16.5625 12.9453C16.5497 12.6989 16.7891 12.4812 17.05 12.4872C17.6157 12.4846 18.182 12.488 18.7477 12.4859C19.0045 12.4979 19.248 12.2951 19.2503 12.0526C19.254 11.5521 19.2494 11.0517 19.2526 10.5516C19.2517 10.4661 19.2558 10.3793 19.2334 10.2963C19.1753 10.1021 18.962 9.96308 18.7482 9.97249C16.2828 9.97676 13.8174 9.96778 11.3525 9.97719Z" fill="currentColor"/>
</svg>
