<svg width="30" height="30" viewBox="0 0 30 30" fill="none" xmlns="http://www.w3.org/2000/svg">
<path d="M21.9949 13.4732C21.861 13.4855 21.727 13.493 21.593 13.493C20.1192 13.493 18.7465 12.766 17.9401 11.5619V18.1389C17.9401 20.8241 15.7154 23 12.97 23C10.2246 23 8 20.8241 8 18.1389C8 15.4537 10.2246 13.2779 12.97 13.2779C13.0737 13.2779 13.1748 13.2877 13.2784 13.2927V15.6886C13.1773 15.6762 13.0762 15.6589 12.97 15.6589C11.5695 15.6589 10.4345 16.7691 10.4345 18.1389C10.4345 19.5087 11.5695 20.6189 12.97 20.6189C14.3705 20.6189 15.6092 19.5384 15.6092 18.1686L15.6345 7H17.978C18.1979 9.05471 19.8942 10.6594 22 10.8102L21.9949 13.4732Z" fill="currentColor"/>
</svg>
