<svg width="32" height="32" viewBox="0 0 32 32" fill="none" xmlns="http://www.w3.org/2000/svg">
<path d="M9.33333 25.3334C12.2789 25.3334 14.6667 22.9456 14.6667 20.0001C14.6667 17.0546 12.2789 14.6667 9.33333 14.6667C6.38781 14.6667 4 17.0546 4 20.0001C4 22.9456 6.38781 25.3334 9.33333 25.3334Z" stroke="currentColor" stroke-width="1.5" stroke-linecap="round" stroke-linejoin="round"/>
<path d="M9.33301 20V20.0133" stroke="currentColor" stroke-width="1.5" stroke-linecap="round" stroke-linejoin="round"/>
<path d="M25.3337 25.3333C26.8064 25.3333 28.0003 24.1394 28.0003 22.6667C28.0003 21.1939 26.8064 20 25.3337 20C23.8609 20 22.667 21.1939 22.667 22.6667C22.667 24.1394 23.8609 25.3333 25.3337 25.3333Z" stroke="currentColor" stroke-width="1.5" stroke-linecap="round" stroke-linejoin="round"/>
<path d="M14 22.6667H22.6667" stroke="currentColor" stroke-width="1.5" stroke-linecap="round" stroke-linejoin="round"/>
<path d="M26.667 20.2668V14.6667C26.667 14.3131 26.5265 13.974 26.2765 13.7239C26.0264 13.4739 25.6873 13.3334 25.3337 13.3334H17.3337L14.667 6.66675H6.66699V15.3334" stroke="currentColor" stroke-width="1.5" stroke-linecap="round" stroke-linejoin="round"/>
<path d="M23.9997 6.66675H22.6663C22.3127 6.66675 21.9736 6.80722 21.7235 7.05727C21.4735 7.30732 21.333 7.64646 21.333 8.00008V13.3334" stroke="currentColor" stroke-width="1.5" stroke-linecap="round" stroke-linejoin="round"/>
</svg>
