<svg width="30" height="30" viewBox="0 0 30 30" fill="none" xmlns="http://www.w3.org/2000/svg">
<path fill-rule="evenodd" clip-rule="evenodd" d="M24.5411 9.81253C24.6802 9.34421 24.5411 9 23.8794 9H21.6914C21.135 9 20.8787 9.29732 20.7396 9.62526C20.7396 9.62526 19.6269 12.3652 18.0505 14.145C17.5406 14.6602 17.3088 14.8239 17.0306 14.8239C16.8915 14.8239 16.6902 14.6602 16.6902 14.1919V9.81253C16.6902 9.25042 16.5288 9 16.0651 9H12.6268C12.2792 9 12.0701 9.26084 12.0701 9.50811C12.0701 10.041 12.8581 10.1638 12.9394 11.6626V14.9179C12.9394 15.6316 12.8118 15.7611 12.5336 15.7611C11.7919 15.7611 9.98773 13.0086 8.91748 9.85942C8.70774 9.24726 8.49738 9 7.93819 9H5.75018C5.12503 9 5 9.29732 5 9.62526C5 10.2107 5.74189 13.1147 8.45393 16.9554C10.2622 19.578 12.8093 21 15.1274 21C16.5183 21 16.6902 20.6842 16.6902 20.1403V18.1579C16.6902 17.5263 16.822 17.4003 17.2622 17.4003C17.587 17.4003 18.1432 17.5642 19.4415 18.8288C20.925 20.3274 21.1694 21 22.004 21H24.192C24.8171 21 25.1297 20.6842 24.9493 20.061C24.7521 19.4398 24.0438 18.5389 23.1039 17.4706C22.594 16.8616 21.8289 16.2058 21.5973 15.8781C21.2727 15.4565 21.3654 15.2692 21.5973 14.8947C21.5973 14.8947 24.2629 11.1008 24.5411 9.81268V9.81253Z" fill="currentColor"/>
</svg>
