<svg width="30" height="30" viewBox="0 0 30 30" fill="none" xmlns="http://www.w3.org/2000/svg">
<path fill-rule="evenodd" clip-rule="evenodd" d="M22.0428 9.36706C22.8138 9.56471 23.4217 10.1435 23.6293 10.8776C24.0148 12.2188 23.9999 15.0141 23.9999 15.0141C23.9999 15.0141 23.9999 17.7953 23.6293 19.1365C23.4217 19.8706 22.8138 20.4494 22.0428 20.6471C20.6342 21 15 21 15 21C15 21 9.38055 21 7.95716 20.6329C7.18616 20.4353 6.57825 19.8565 6.37067 19.1224C6 17.7953 6 15 6 15C6 15 6 12.2188 6.37067 10.8776C6.57825 10.1435 7.20098 9.55059 7.95716 9.35294C9.36572 9 15 9 15 9C15 9 20.6342 9 22.0428 9.36706ZM17.8909 14.9999L13.2056 17.5693V12.4305L17.8909 14.9999Z" fill="currentColor"/>
</svg>
